mtllib materials.mtl
v 0.01056182 1.440384 -0.1050136
v -0.1128225 1.438896 -0.1459295
v 0.9436163 -3.502981 -3.151956
v 1.067001 -3.501493 -3.11104
v -0.02306533 1.369955 -0.001047254
v 1.033374 -3.571922 -3.007073
v 0.9099892 -3.57341 -3.047989
v -0.1464497 1.368467 -0.0419631
v 0.05381775 2.522211 -0.1701864
v -0.07042837 2.490011 -0.1908275
v 1.190126 -3.130644 0.9897064
v 1.314372 -3.098443 1.010347
v 0.02762234 2.542732 -0.04451728
v 1.288176 -3.077923 1.136017
v 1.16393 -3.110123 1.115376
v -0.09662378 2.510531 -0.06515825
v -0.101663 2.503719 -0.1872696
v -0.2259122 2.528955 -0.2159964
v -1.478384 -3.203435 0.165341
v -1.354134 -3.228671 0.194068
v -1.504753 -3.189258 0.2918468
v -0.2522814 2.543132 -0.08949089
v -0.1280323 2.517896 -0.06076384
v -1.380504 -3.214495 0.3205738
v 1.000646 -0.5405765 0.9319781
v -1.28822 -0.5221694 0.2443327
v -1.283449 -0.3727166 0.2324535
v 1.005416 -0.3911237 0.9200988
v 1.0693 -0.5609752 0.7029136
v 1.07407 -0.4115225 0.6910344
v -1.214795 -0.3931153 0.003389001
v -1.219566 -0.5425681 0.01526821
v 0.965036 -0.4228475 0.7596645
v -1.142019 -0.3778787 0.1285561
v -1.172854 -0.3606599 0.2327323
v 0.9342004 -0.4056288 0.8638407
v 1.172604 2.766652 0.2939283
v 1.141769 2.78387 0.3981045
v -0.9652858 2.828839 -0.2330039
v -0.9344503 2.81162 -0.33718
v 0.5556387 1.138441 0.1718628
v -0.7363783 1.173884 -0.1817411
v -0.7268181 1.342656 -0.1997561
v 0.5651988 1.307214 0.1538477
v 0.5608224 1.136101 0.1526885
v 0.5703825 1.304873 0.1346735
v -0.7216345 1.340316 -0.2189305
v -0.7311947 1.171544 -0.2009153
v 1.024733 -0.4139142 0.6923381
v -1.193387 -0.3958791 0.04757702
v -1.181738 -0.1281061 0.01499057
v 1.036383 -0.1461411 0.6597517
v 1.030251 -0.4164729 0.6732852
v 1.0419 -0.1486998 0.6406988
v -1.17622 -0.1306647 -0.004062295
v -1.18787 -0.3984378 0.02852416
vn 0.2586698 0.5417601 -0.7997412
vn -0.2586698 -0.5417601 0.7997412
vn -0.179667 0.8404552 0.5112287
vn 0.179667 -0.8404552 -0.5112287
vn 0.9491101 0.01144715 0.3147366
vn -0.9491101 -0.01144715 -0.3147366
vn 0.2015034 -0.1578462 -0.9666855
vn -0.2015034 0.1578462 0.9666855
vn -0.2143804 0.9558933 -0.2007711
vn 0.2143804 -0.9558933 0.2007711
vn 0.9557393 0.247694 0.158777
vn -0.9557393 -0.247694 -0.158777
vn 0.2028396 -0.1090537 -0.9731205
vn -0.2028404 0.1090538 0.9731203
vn -0.2130045 -0.9748965 0.06485303
vn 0.2130041 0.9748966 -0.06485368
vn 0.955764 -0.194125 0.2209767
vn -0.955764 0.194125 -0.2209768
vn -0.2860581 0.08499486 0.9544353
vn 0.2860581 -0.08499486 -0.9544353
vn -0.03180534 -0.9963517 0.07919513
vn 0.03180534 0.9963517 -0.07919513
vn 0.9576842 -0.007701708 0.2877179
vn -0.9576842 0.007701708 -0.2877179
vn -0.06426282 -0.987461 0.1441912
vn 0.06426282 0.987461 -0.1441912
vn 0.2803232 -0.156534 -0.9470565
vn -0.2803232 0.156534 0.9470565
vn 0.9577522 -0.02044042 0.2868675
vn -0.9577522 0.02044043 -0.2868675
vn -0.2591748 0.1170163 0.9587156
vn 0.2591748 -0.1170163 -0.9587156
vn -0.05623643 -0.9927778 0.105971
vn 0.05623643 0.9927778 -0.105971
vn 0.9641916 -0.02644962 0.2638844
vn -0.9641916 0.02644962 -0.2638844
vn -0.275873 0.1279328 0.9526423
vn 0.275873 -0.1279328 -0.9526423
vn -0.0431459 -0.9917521 0.1206904
vn 0.0431459 0.9917521 -0.1206904
vn 0.9602258 -0.007807649 0.2791154
vn -0.9602258 0.007807649 -0.2791154
vt -0.02349086 0.1238172
vt -0.02438347 0.1108479
vt 0.5622289 0.07047479
vt 0.5631216 0.08344412
vt 0.02349088 0.1238172
vt -0.5631215 0.08344413
vt -0.5622289 0.07047479
vt 0.02438347 0.1108479
vt 0.09167193 0.2583496
vt 0.08232966 0.2493095
vt 0.09136968 0.2399673
vt 0.100712 0.2490073
vt -0.09167217 0.2583493
vt -0.1007122 0.249007
vt -0.09136989 0.239967
vt -0.08232985 0.2493093
vt 0.01443696 0.2471785
vt -0.5720814 0.2054622
vt -0.5711591 0.192495
vt 0.01535927 0.2342113
vt -0.01443697 0.2471786
vt -0.01535926 0.2342113
vt 0.5711591 0.192495
vt 0.5720814 0.2054622
vt -0.1704034 0.2801589
vt -0.1744525 0.2678055
vt 0.3842988 0.08466293
vt 0.3883478 0.09701627
vt 0.1704034 0.2801589
vt -0.3883478 0.09701629
vt -0.3842988 0.08466295
vt 0.1744525 0.2678055
vt 0.03551962 0.2506285
vt 0.02369742 0.2452215
vt 0.02910443 0.2333993
vt 0.04092664 0.2388063
vt -0.03551975 0.2506282
vt -0.04092676 0.238806
vt -0.02910456 0.2333991
vt -0.02369755 0.2452213
vt 0.1230058 0.2561408
vt -0.3549328 -0.08637767
vt -0.3473601 -0.09694434
vt 0.1305785 0.2455741
vt -0.1230058 0.2561408
vt -0.1305784 0.2455741
vt 0.3473601 -0.09694433
vt 0.3549328 -0.08637767
vt -0.1760584 0.2588919
vt -0.1849011 0.2493627
vt 0.2461102 -0.1506039
vt 0.254953 -0.1410747
vt -0.2461101 -0.150604
vt 0.1849012 0.2493627
vt 0.1760584 0.2588918
vt -0.2549529 -0.1410749
vt -0.09563902 0.1283797
vt -0.08466907 0.1214041
vt -0.07769337 0.132374
vt -0.08866333 0.1393497
vt 0.07769323 0.1323745
vt 0.08466892 0.1214046
vt 0.09563885 0.1283803
vt 0.08866318 0.1393502
vt -0.2725585 -0.1561103
vt 0.05981828 0.3289358
vt 0.04909447 0.3362843
vt -0.2832823 -0.1487618
vt -0.04909449 0.3362843
vt -0.05981829 0.3289358
vt 0.2725585 -0.1561103
vt 0.2832824 -0.1487618
vt -0.1582268 0.1955784
vt -0.02713963 -0.004264436
vt -0.0145972 0.003962799
vt -0.1456843 0.2038056
vt 0.1582268 0.1955784
vt 0.1456843 0.2038056
vt 0.0145972 0.003962798
vt 0.02713963 -0.004264427
vt 0.04499226 0.2727607
vt 0.02520782 0.2863466
vt -0.1100849 0.08932654
vt -0.09030042 0.07574065
vt -0.04499226 0.2727607
vt 0.0903004 0.07574066
vt 0.1100848 0.08932653
vt -0.02520782 0.2863466
vt -0.09913405 0.06754056
vt -0.08828743 0.07790156
vt -0.1048651 0.09525617
vt -0.1157117 0.08489516
vt 0.09913402 0.06754053
vt 0.1157117 0.08489513
vt 0.104865 0.09525614
vt 0.08828739 0.07790153
vt 0.0196237 0.2749772
vt -0.0988809 0.08962173
vt -0.08961312 0.0836965
vt 0.02889147 0.269052
vt -0.01962382 0.2749771
vt -0.0288916 0.2690519
vt 0.08961301 0.08369642
vt 0.09888077 0.08962165
vt 0.1413073 0.1967624
vt -0.1206664 0.3857036
vt -0.249357 0.2072695
vt 0.01261666 0.01832828
vt -0.1413073 0.1967624
vt -0.01261665 0.01832828
vt 0.249357 0.2072695
vt 0.1206664 0.3857036
vt -0.09814243 0.08765229
vt -0.08991103 0.08035544
vt 0.1243508 0.3220595
vt 0.1161194 0.3293564
vt 0.09814243 0.08765228
vt -0.1161194 0.3293564
vt -0.1243508 0.3220595
vt 0.08991103 0.08035545
vt 0.02192261 0.2413506
vt 0.09796642 0.1310178
vt 0.1119639 0.1406651
vt 0.03592007 0.250998
vt -0.02192261 0.2413506
vt -0.03592006 0.250998
vt -0.1119639 0.1406651
vt -0.09796642 0.1310178
vt -0.02951234 0.2392622
vt -0.03120155 0.240333
vt -0.1029432 0.1271556
vt -0.101254 0.1260848
vt 0.02951235 0.2392622
vt 0.101254 0.1260848
vt 0.1029432 0.1271556
vt 0.03120155 0.240333
vt -0.00769489 0.2176851
vt 0.003813135 0.2301977
vt 0.002341067 0.2315516
vt -0.009166965 0.219039
vt 0.007694811 0.217685
vt 0.009166876 0.2190389
vt -0.002341148 0.2315515
vt -0.003813221 0.2301976
vt -0.1425902 0.201577
vt -0.01275569 0.01051688
vt 0.009576017 0.02569234
vt -0.1202585 0.2167525
vt 0.1425902 0.201577
vt 0.1202585 0.2167525
vt -0.009576016 0.02569234
vt 0.01275569 0.01051688
vt 0.01781096 0.2822235
vt 0.01612988 0.283307
vt -0.1090161 0.08914351
vt -0.1073351 0.08806
vt -0.01781095 0.2822235
vt 0.1073351 0.08806
vt 0.1090161 0.08914351
vt -0.01612988 0.283307
vt -0.1032644 0.09155014
vt -0.08468384 0.11114
vt -0.08613494 0.1125163
vt -0.1047155 0.09292649
vt 0.1032647 0.09155047
vt 0.1047158 0.09292682
vt 0.08613528 0.1125167
vt 0.08468418 0.1111403
o group1441049998
g mesh1441049998
usemtl mat21
f 36/100/25 35/99/25 34/98/25 33/97/25
f 40/104/26 39/103/26 38/102/26 37/101/26
f 34/108/27 40/107/27 37/106/27 33/105/27
f 38/112/28 39/111/28 35/110/28 36/109/28
f 37/116/29 38/115/29 36/114/29 33/113/29
f 35/120/30 39/119/30 40/118/30 34/117/30
o group1958263894
g mesh1958263894
usemtl mat20
f 4/4/1 3/3/1 2/2/1 1/1/1
f 8/8/2 7/7/2 6/6/2 5/5/2
f 2/12/3 8/11/3 5/10/3 1/9/3
f 6/16/4 7/15/4 3/14/4 4/13/4
f 5/20/5 6/19/5 4/18/5 1/17/5
f 3/24/6 7/23/6 8/22/6 2/21/6
f 12/28/7 11/27/7 10/26/7 9/25/7
f 16/32/8 15/31/8 14/30/8 13/29/8
f 10/36/9 16/35/9 13/34/9 9/33/9
f 14/40/10 15/39/10 11/38/10 12/37/10
f 13/44/11 14/43/11 12/42/11 9/41/11
f 11/48/12 15/47/12 16/46/12 10/45/12
f 20/52/13 19/51/13 18/50/13 17/49/13
f 24/56/14 23/55/14 22/54/14 21/53/14
f 20/60/15 24/59/15 21/58/15 19/57/15
f 17/64/16 18/63/16 22/62/16 23/61/16
f 20/68/17 17/67/17 23/66/17 24/65/17
f 19/72/18 21/71/18 22/70/18 18/69/18
f 28/76/19 27/75/19 26/74/19 25/73/19
f 32/80/20 31/79/20 30/78/20 29/77/20
f 26/84/21 32/83/21 29/82/21 25/81/21
f 30/88/22 31/87/22 27/86/22 28/85/22
f 29/92/23 30/91/23 28/90/23 25/89/23
f 27/96/24 31/95/24 32/94/24 26/93/24
f 44/124/31 43/123/31 42/122/31 41/121/31
f 48/128/32 47/127/32 46/126/32 45/125/32
f 42/132/33 48/131/33 45/130/33 41/129/33
f 46/136/34 47/135/34 43/134/34 44/133/34
f 45/140/35 46/139/35 44/138/35 41/137/35
f 43/144/36 47/143/36 48/142/36 42/141/36
f 52/148/37 51/147/37 50/146/37 49/145/37
f 56/152/38 55/151/38 54/150/38 53/149/38
f 50/156/39 56/155/39 53/154/39 49/153/39
f 54/160/40 55/159/40 51/158/40 52/157/40
f 53/164/41 54/163/41 52/162/41 49/161/41
f 51/168/42 55/167/42 56/166/42 50/165/42
